<svg width="245" height="27" viewBox="0 0 245 27" fill="none" xmlns="http://www.w3.org/2000/svg">
<path d="M5.776 26C3.952 26 2.536 25.52 1.528 24.56C0.52 23.6 0.0160001 22.256 0.0160001 20.528V6.128C0.0160001 4.448 0.496 3.14 1.456 2.204C2.44 1.268 3.796 0.799998 5.524 0.799998H13.84C16.624 0.799998 18.772 1.388 20.284 2.564C21.796 3.74 22.552 5.444 22.552 7.676C22.552 8.78 22.228 9.812 21.58 10.772C20.932 11.708 20.092 12.416 19.06 12.896V12.932C20.212 13.388 21.148 14.12 21.868 15.128C22.612 16.112 22.984 17.18 22.984 18.332C22.984 20.732 22.204 22.616 20.644 23.984C19.108 25.328 16.984 26 14.272 26H5.776ZM13.84 11.204C15.064 11.204 16.012 10.904 16.684 10.304C17.38 9.704 17.728 8.84 17.728 7.712C17.728 6.608 17.404 5.792 16.756 5.264C16.108 4.736 15.136 4.472 13.84 4.472H6.28C5.8 4.472 5.416 4.628 5.128 4.94C4.864 5.252 4.732 5.684 4.732 6.236V11.204H13.84ZM13.84 22.328C16.72 22.328 18.16 21.02 18.16 18.404C18.16 17.276 17.776 16.4 17.008 15.776C16.264 15.152 15.208 14.84 13.84 14.84H4.732V20.564C4.732 21.116 4.864 21.548 5.128 21.86C5.416 22.172 5.8 22.328 6.28 22.328H13.84ZM28.8604 26.324C28.1404 26.324 27.5644 26.132 27.1324 25.748C26.7004 25.364 26.4844 24.836 26.4844 24.164V11.564C26.4844 8.084 27.4804 5.36 29.4724 3.392C31.4644 1.424 34.2364 0.439999 37.7884 0.439999C40.1164 0.439999 42.1324 0.883999 43.8364 1.772C45.5404 2.66 46.8364 3.944 47.7244 5.624C48.6364 7.304 49.0924 9.284 49.0924 11.564V24.164C49.0924 24.836 48.8764 25.364 48.4444 25.748C48.0124 26.132 47.4364 26.324 46.7164 26.324C45.9964 26.324 45.4084 26.132 44.9524 25.748C44.5204 25.34 44.3044 24.812 44.3044 24.164V18.296H31.2724V24.164C31.2724 24.812 31.0444 25.34 30.5884 25.748C30.1564 26.132 29.5804 26.324 28.8604 26.324ZM44.3044 14.588V11.456C44.3044 9.056 43.7524 7.256 42.6484 6.056C41.5684 4.832 39.9484 4.22 37.7884 4.22C33.4444 4.22 31.2724 6.632 31.2724 11.456V14.588H44.3044ZM65.8133 26.36C63.1013 26.36 60.7493 25.844 58.7573 24.812C56.7653 23.78 55.2413 22.292 54.1853 20.348C53.1293 18.404 52.6013 16.1 52.6013 13.436C52.6013 10.772 53.1293 8.468 54.1853 6.524C55.2413 4.556 56.7533 3.056 58.7213 2.024C60.7133 0.967999 63.0533 0.439999 65.7413 0.439999C67.9733 0.439999 70.0373 0.823999 71.9333 1.592C73.8293 2.36 75.2333 3.38 76.1453 4.652C76.4333 5.036 76.5773 5.432 76.5773 5.84C76.5773 6.44 76.2533 6.98 75.6053 7.46C75.3173 7.676 74.9573 7.784 74.5253 7.784C74.1653 7.784 73.8053 7.712 73.4453 7.568C73.0853 7.4 72.7853 7.172 72.5453 6.884C71.7293 5.948 70.7813 5.276 69.7013 4.868C68.6213 4.436 67.3013 4.22 65.7413 4.22C63.1253 4.22 61.0853 5.036 59.6213 6.668C58.1573 8.276 57.4253 10.532 57.4253 13.436C57.4253 16.316 58.1573 18.56 59.6213 20.168C61.1093 21.776 63.1733 22.58 65.8133 22.58C67.9973 22.58 69.7013 22.16 70.9253 21.32C72.1733 20.48 72.7973 19.316 72.7973 17.828V17.036C72.7973 16.532 72.6773 16.184 72.4373 15.992C72.2213 15.8 71.8373 15.704 71.2853 15.704H66.5693C65.8973 15.704 65.3693 15.548 64.9853 15.236C64.6013 14.9 64.4093 14.444 64.4093 13.868C64.4093 13.268 64.5893 12.812 64.9493 12.5C65.3333 12.164 65.8733 11.996 66.5693 11.996H73.5533C74.9453 11.996 75.9653 12.296 76.6133 12.896C77.2613 13.472 77.5853 14.396 77.5853 15.668V17.072C77.5853 18.896 77.0933 20.516 76.1093 21.932C75.1253 23.324 73.7333 24.416 71.9333 25.208C70.1573 25.976 68.1173 26.36 65.8133 26.36ZM83.4581 26.324C82.7381 26.324 82.1621 26.132 81.7301 25.748C81.2981 25.364 81.0821 24.836 81.0821 24.164V11.564C81.0821 8.084 82.0781 5.36 84.0701 3.392C86.0621 1.424 88.8341 0.439999 92.3861 0.439999C94.7141 0.439999 96.7301 0.883999 98.4341 1.772C100.138 2.66 101.434 3.944 102.322 5.624C103.234 7.304 103.69 9.284 103.69 11.564V24.164C103.69 24.836 103.474 25.364 103.042 25.748C102.61 26.132 102.034 26.324 101.314 26.324C100.594 26.324 100.006 26.132 99.5501 25.748C99.1181 25.34 98.9021 24.812 98.9021 24.164V18.296H85.8701V24.164C85.8701 24.812 85.6421 25.34 85.1861 25.748C84.7541 26.132 84.1781 26.324 83.4581 26.324ZM98.9021 14.588V11.456C98.9021 9.056 98.3501 7.256 97.2461 6.056C96.1661 4.832 94.5461 4.22 92.3861 4.22C88.0421 4.22 85.8701 6.632 85.8701 11.456V14.588H98.9021ZM119.727 26.36C117.375 26.36 115.167 25.976 113.103 25.208C111.039 24.416 109.251 23.288 107.739 21.824C107.379 21.464 107.199 21.056 107.199 20.6C107.199 20.072 107.439 19.568 107.919 19.088C108.303 18.704 108.723 18.512 109.179 18.512C109.659 18.512 110.235 18.788 110.907 19.34C112.035 20.372 113.367 21.176 114.903 21.752C116.463 22.304 118.071 22.58 119.727 22.58C121.311 22.58 122.547 22.316 123.435 21.788C124.323 21.236 124.767 20.468 124.767 19.484C124.767 18.452 124.287 17.624 123.327 17C122.367 16.352 120.735 15.776 118.431 15.272C114.807 14.48 112.167 13.436 110.511 12.14C108.879 10.844 108.063 9.176 108.063 7.136C108.063 5.84 108.495 4.688 109.359 3.68C110.223 2.648 111.423 1.856 112.959 1.304C114.519 0.727998 116.295 0.439999 118.287 0.439999C120.519 0.439999 122.499 0.811999 124.227 1.556C125.979 2.276 127.311 3.296 128.223 4.616C128.535 5.12 128.691 5.552 128.691 5.912C128.667 6.512 128.367 7.028 127.791 7.46C127.479 7.676 127.119 7.784 126.711 7.784C125.967 7.784 125.355 7.496 124.875 6.92C124.179 6.08 123.243 5.42 122.067 4.94C120.915 4.46 119.655 4.22 118.287 4.22C116.583 4.22 115.251 4.484 114.291 5.012C113.355 5.516 112.887 6.224 112.887 7.136C112.887 8.048 113.343 8.804 114.255 9.404C115.191 9.98 116.799 10.532 119.079 11.06C121.599 11.66 123.627 12.344 125.163 13.112C126.699 13.856 127.815 14.744 128.511 15.776C129.231 16.808 129.591 18.044 129.591 19.484C129.591 20.852 129.183 22.064 128.367 23.12C127.551 24.152 126.399 24.956 124.911 25.532C123.423 26.084 121.695 26.36 119.727 26.36ZM145.426 26.36C143.074 26.36 140.866 25.976 138.802 25.208C136.738 24.416 134.95 23.288 133.438 21.824C133.078 21.464 132.898 21.056 132.898 20.6C132.898 20.072 133.138 19.568 133.618 19.088C134.002 18.704 134.422 18.512 134.878 18.512C135.358 18.512 135.934 18.788 136.606 19.34C137.734 20.372 139.066 21.176 140.602 21.752C142.162 22.304 143.77 22.58 145.426 22.58C147.01 22.58 148.246 22.316 149.134 21.788C150.022 21.236 150.466 20.468 150.466 19.484C150.466 18.452 149.986 17.624 149.026 17C148.066 16.352 146.434 15.776 144.13 15.272C140.506 14.48 137.866 13.436 136.21 12.14C134.578 10.844 133.762 9.176 133.762 7.136C133.762 5.84 134.194 4.688 135.058 3.68C135.922 2.648 137.122 1.856 138.658 1.304C140.218 0.727998 141.994 0.439999 143.986 0.439999C146.218 0.439999 148.198 0.811999 149.926 1.556C151.678 2.276 153.01 3.296 153.922 4.616C154.234 5.12 154.39 5.552 154.39 5.912C154.366 6.512 154.066 7.028 153.49 7.46C153.178 7.676 152.818 7.784 152.41 7.784C151.666 7.784 151.054 7.496 150.574 6.92C149.878 6.08 148.942 5.42 147.766 4.94C146.614 4.46 145.354 4.22 143.986 4.22C142.282 4.22 140.95 4.484 139.99 5.012C139.054 5.516 138.586 6.224 138.586 7.136C138.586 8.048 139.042 8.804 139.954 9.404C140.89 9.98 142.498 10.532 144.778 11.06C147.298 11.66 149.326 12.344 150.862 13.112C152.398 13.856 153.514 14.744 154.21 15.776C154.93 16.808 155.29 18.044 155.29 19.484C155.29 20.852 154.882 22.064 154.066 23.12C153.25 24.152 152.098 24.956 150.61 25.532C149.122 26.084 147.394 26.36 145.426 26.36Z" fill="url(#paint0_linear_402_516)"/>
<path d="M161.297 26C160.457 26 159.761 25.736 159.209 25.208C158.657 24.68 158.381 24.044 158.381 23.3C158.381 22.508 158.657 21.848 159.209 21.32C159.761 20.768 160.457 20.492 161.297 20.492C162.137 20.492 162.821 20.768 163.349 21.32C163.901 21.872 164.177 22.532 164.177 23.3C164.177 24.044 163.901 24.68 163.349 25.208C162.821 25.736 162.137 26 161.297 26ZM170.017 26.36C169.297 26.36 168.721 26.168 168.289 25.784C167.857 25.4 167.641 24.872 167.641 24.2V6.128C167.641 4.448 168.121 3.14 169.081 2.204C170.065 1.268 171.421 0.799998 173.149 0.799998H179.233C182.881 0.799998 185.653 1.556 187.549 3.068C189.445 4.58 190.393 6.8 190.393 9.728C190.393 12.656 189.469 14.876 187.621 16.388C185.773 17.9 183.049 18.656 179.449 18.656H172.429V24.2C172.429 24.848 172.201 25.376 171.745 25.784C171.313 26.168 170.737 26.36 170.017 26.36ZM179.413 14.948C183.517 14.948 185.569 13.208 185.569 9.728C185.569 6.248 183.517 4.508 179.413 4.508H173.977C173.497 4.508 173.113 4.664 172.825 4.976C172.561 5.288 172.429 5.72 172.429 6.272V14.948H179.413ZM196.275 26.36C195.555 26.36 194.979 26.168 194.547 25.784C194.115 25.4 193.899 24.872 193.899 24.2V10.628C193.899 7.436 194.895 4.94 196.887 3.14C198.879 1.34 201.639 0.439999 205.167 0.439999C208.695 0.439999 211.455 1.34 213.447 3.14C215.439 4.94 216.435 7.436 216.435 10.628V24.2C216.435 24.872 216.219 25.4 215.787 25.784C215.355 26.168 214.779 26.36 214.059 26.36C213.339 26.36 212.751 26.168 212.295 25.784C211.863 25.376 211.647 24.848 211.647 24.2V10.52C211.647 8.48 211.095 6.92 209.991 5.84C208.887 4.76 207.279 4.22 205.167 4.22C203.055 4.22 201.447 4.76 200.343 5.84C199.239 6.92 198.687 8.48 198.687 10.52V24.2C198.687 24.848 198.459 25.376 198.003 25.784C197.571 26.168 196.995 26.36 196.275 26.36ZM232.77 26.36C230.058 26.36 227.706 25.844 225.714 24.812C223.722 23.78 222.198 22.292 221.142 20.348C220.086 18.404 219.558 16.1 219.558 13.436C219.558 10.772 220.086 8.468 221.142 6.524C222.198 4.556 223.71 3.056 225.678 2.024C227.67 0.967999 230.01 0.439999 232.698 0.439999C234.93 0.439999 236.994 0.823999 238.89 1.592C240.786 2.36 242.19 3.38 243.102 4.652C243.39 5.036 243.534 5.432 243.534 5.84C243.534 6.44 243.21 6.98 242.562 7.46C242.274 7.676 241.914 7.784 241.482 7.784C241.122 7.784 240.762 7.712 240.402 7.568C240.042 7.4 239.742 7.172 239.502 6.884C238.686 5.948 237.738 5.276 236.658 4.868C235.578 4.436 234.258 4.22 232.698 4.22C230.082 4.22 228.042 5.036 226.578 6.668C225.114 8.276 224.382 10.532 224.382 13.436C224.382 16.316 225.114 18.56 226.578 20.168C228.066 21.776 230.13 22.58 232.77 22.58C234.954 22.58 236.658 22.16 237.882 21.32C239.13 20.48 239.754 19.316 239.754 17.828V17.036C239.754 16.532 239.634 16.184 239.394 15.992C239.178 15.8 238.794 15.704 238.242 15.704H233.526C232.854 15.704 232.326 15.548 231.942 15.236C231.558 14.9 231.366 14.444 231.366 13.868C231.366 13.268 231.546 12.812 231.906 12.5C232.29 12.164 232.83 11.996 233.526 11.996H240.51C241.902 11.996 242.922 12.296 243.57 12.896C244.218 13.472 244.542 14.396 244.542 15.668V17.072C244.542 18.896 244.05 20.516 243.066 21.932C242.082 23.324 240.69 24.416 238.89 25.208C237.114 25.976 235.074 26.36 232.77 26.36Z" fill="white"/>
<defs>
<linearGradient id="paint0_linear_402_516" x1="-2" y1="12.5" x2="142" y2="12.5" gradientUnits="userSpaceOnUse">
<stop stop-color="#FF56F6"/>
<stop offset="0.34375" stop-color="#B936EE"/>
<stop offset="0.703125" stop-color="#3BACE2"/>
<stop offset="1" stop-color="#406AFF"/>
</linearGradient>
</defs>
</svg>
